<?xml version="1.0" encoding="utf-8"?>
<!-- Generator: Adobe Illustrator 18.1.1, SVG Export Plug-In . SVG Version: 6.00 Build 0)  -->
<svg version="1.0" id="图层_2" xmlns="http://www.w3.org/2000/svg" xmlns:xlink="http://www.w3.org/1999/xlink" x="0px" y="0px"
	 viewBox="0 0 595.3 841.9" enable-background="new 0 0 595.3 841.9" xml:space="preserve">
<g>	
	<circle fill="#FF0D0D" cx="193" cy="282" r="63.8"/>
	<path fill="#FF0D0D" d="M106.2,282L106.2,282c0,3.1-2.3,5.4-5.4,5.4H71.6c-3.1,0-5.4-2.3-5.4-5.4l0,0c0-3.1,2.3-5.4,5.4-5.4h28.8
		C103.9,276.6,106.2,278.9,106.2,282z"/>
	<path fill="#FF0D0D" d="M319.4,282L319.4,282c0,3.1-2.3,5.4-5.4,5.4h-28.8c-3.1,0-5.4-2.3-5.4-5.4l0,0c0-3.1,2.3-5.4,5.4-5.4H314
		C317.1,276.6,319.4,278.9,319.4,282z"/>
	<path fill="#FF0D0D" d="M193,368.8L193,368.8c3.1,0,5.4,2.3,5.4,5.4V403c0,3.1-2.3,5.4-5.4,5.4l0,0c-3.1,0-5.4-2.3-5.4-5.4v-28.8
		C187.5,371.1,190.3,368.8,193,368.8z"/>
	<path fill="#FF0D0D" d="M193,155.6L193,155.6c3.1,0,5.4,2.3,5.4,5.4v28.8c0,3.1-2.3,5.4-5.4,5.4l0,0c-3.1,0-5.4-2.3-5.4-5.4v-29.2
		C187.5,157.9,190.3,155.6,193,155.6z"/>
	<path fill="#FF0D0D" d="M254.5,343.1L254.5,343.1c2.3-2.3,5.4-2.3,7.8,0l20.6,20.6c2.3,2.3,2.3,5.4,0,7.8l0,0
		c-2.3,2.3-5.4,2.3-7.8,0l-20.6-20.6C252.5,349,252.5,345.5,254.5,343.1z"/>
	<path fill="#FF0D0D" d="M103.9,192.6L103.9,192.6c2.3-2.3,5.4-2.3,7.8,0l20.6,20.6c2.3,2.3,2.3,5.4,0,7.8l0,0
		c-2.3,2.3-5.4,2.3-7.8,0l-20.6-20.6C101.5,198,101.5,194.5,103.9,192.6z"/>
	<path fill="#FF0D0D" d="M131.9,343.5L131.9,343.5c2.3,2.3,2.3,5.4,0,7.8l-20.6,20.6c-2.3,2.3-5.4,2.3-7.8,0l0,0
		c-2.3-2.3-2.3-5.4,0-7.8l20.6-20.6C126.1,341.2,129.6,341.2,131.9,343.5z"/>
	<path fill="#FF0D0D" d="M282.5,192.6L282.5,192.6c2.3,2.3,2.3,5.4,0,7.8L261.8,221c-2.3,2.3-5.4,2.3-7.8,0l0,0
		c-2.3-2.3-2.3-5.4,0-7.8l20.6-20.6C277,190.6,280.5,190.6,282.5,192.6z"/>
</g>
<path fill="#36E7FF" d="M149.8,383.6c-11.3-88.3,77.8-84,77.8-84c-5.8-19.5,13.2-100.8,88.7-104.3s96.9,66.5,96.9,66.5
	s21-17.9,71.2-0.8c21.4,7.4,35.4,22.6,44,37.4c15.2,26.5,17.5,58.7,6.2,86.8c-22.6,55.6-84.8,55.6-84.8,55.6H224.1
	C224.1,441.2,157.6,444.3,149.8,383.6z"/>
<path fill="#8DEAFF" d="M345.2,499.7c-2.8,0-10.2-1.6-11-9.5c-0.7-7.9,11-24.6,11-24.6s11.7,16.7,11,24.6
	C355.5,498.1,348.1,499.7,345.2,499.7z"/>
</svg>
