<?xml version="1.0" encoding="utf-8"?>
<!-- Generator: Adobe Illustrator 18.1.1, SVG Export Plug-In . SVG Version: 6.00 Build 0)  -->
<svg version="1.0" id="图层_2" xmlns="http://www.w3.org/2000/svg" xmlns:xlink="http://www.w3.org/1999/xlink" x="0px" y="0px"
	 viewBox="0 0 595.3 841.9" enable-background="new 0 0 595.3 841.9" xml:space="preserve">
<path fill="#6a6a6a" d="M94.1,379.9c-12.6-99.4,87.5-94.5,87.5-94.5c-6.5-21.9,14.7-113.5,99.7-117.4c85-4,109,74.7,109,74.7
	s23.6-20.1,80.1-0.9c24,8.4,39.9,25.4,49.5,42c17,29.9,19.6,66.1,7,97.6c-25.4,62.6-95.5,62.6-95.5,62.6H177.7
	C177.7,444.5,102.9,448,94.1,379.9z"/>
<path fill="#8D8D8D" d="M23.9,400.5c-8.5-67.5,59.5-64.2,59.5-64.2c-4.5-14.9,10-77,67.7-79.7c57.7-2.7,74,50.7,74,50.7
	s16-13.6,54.4-0.6c16.4,5.7,27.1,17.3,33.6,28.5c11.5,20.3,13.3,44.8,4.7,66.3c-17.3,42.5-64.8,42.5-64.8,42.5H80.6
	C80.6,444.4,29.9,446.8,23.9,400.5z"/>
</svg>
