<?xml version="1.0" encoding="utf-8"?>
<!-- Generator: Adobe Illustrator 18.1.1, SVG Export Plug-In . SVG Version: 6.00 Build 0)  -->
<svg version="1.0" id="图层_2" xmlns="http://www.w3.org/2000/svg" xmlns:xlink="http://www.w3.org/1999/xlink" x="0px" y="0px"
	 viewBox="0 123.3 255 255" enable-background="new 0 123.3 255 255" xml:space="preserve">
<g>
	<circle fill="#FF0D0D" cx="127.6" cy="250.8" r="64.2"/>
	<path fill="#FF0D0D" d="M40,250.8L40,250.8c0,3-2.5,5.5-5.4,5.5H5.4c-3,0-5.4-2.5-5.4-5.4l0,0c0-3,2.5-5.4,5.4-5.4h29.2
		C37.6,245.5,40,247.8,40,250.8z"/>
	<path fill="#FF0D0D" d="M255,250.8L255,250.8c0,3-2.5,5.5-5.4,5.5h-29.2c-3,0-5.4-2.5-5.4-5.4l0,0c0-3,2.5-5.4,5.4-5.4h29.2
		C252.6,245.5,255,247.8,255,250.8z"/>
	<path fill="#FF0D0D" d="M127.6,338.3L127.6,338.3c3,0,5.5,2.5,5.5,5.4v29.2c0,3-2.5,5.4-5.4,5.4l0,0c-3,0-5.4-2.5-5.4-5.4v-29.2
		C122.1,340.8,124.6,338.3,127.6,338.3z"/>
	<path fill="#FF0D0D" d="M127.6,123.3L127.6,123.3c3,0,5.5,2.5,5.5,5.4v29.2c0,3-2.5,5.4-5.4,5.4l0,0c-3,0-5.4-2.5-5.4-5.4v-29.2
		C122.1,125.8,124.6,123.3,127.6,123.3z"/>
	<path fill="#FF0D0D" d="M189.4,312.6L189.4,312.6c2.2-2.2,5.5-2.2,7.7,0l20.6,20.6c2.2,2.2,2.2,5.5,0,7.7l0,0
		c-2.2,2.2-5.5,2.2-7.7,0l-20.6-20.6C187.4,318.3,187.4,314.8,189.4,312.6z"/>
	<path fill="#FF0D0D" d="M37.4,160.6L37.4,160.6c2.2-2.2,5.5-2.2,7.7,0l20.6,20.6c2.2,2.2,2.2,5.5,0,7.7l0,0c-2.2,2.2-5.5,2.2-7.7,0
		l-20.6-20.6C35.3,166.1,35.3,162.8,37.4,160.6z"/>
	<path fill="#FF0D0D" d="M65.7,312.8L65.7,312.8c2.2,2.2,2.2,5.5,0,7.7l-20.6,20.6c-2.2,2.2-5.5,2.2-7.7,0l0,0
		c-2.2-2.2-2.2-5.5,0-7.7L58,312.8C60.1,310.7,63.6,310.7,65.7,312.8z"/>
	<path fill="#FF0D0D" d="M217.7,160.8L217.7,160.8c2.2,2.2,2.2,5.5,0,7.7l-20.6,20.6c-2.2,2.2-5.5,2.2-7.7,0l0,0
		c-2.2-2.2-2.2-5.5,0-7.7l20.6-20.6C212.2,158.6,215.5,158.6,217.7,160.8z"/>
</g>
</svg>
