<?xml version="1.0" encoding="utf-8"?>
<!-- Generator: Adobe Illustrator 18.1.1, SVG Export Plug-In . SVG Version: 6.00 Build 0)  -->
<svg version="1.0" id="图层_2" xmlns="http://www.w3.org/2000/svg" xmlns:xlink="http://www.w3.org/1999/xlink" x="0px" y="0px"
	 viewBox="4.6 1139.8 595.3 594.9" enable-background="new 4.6 1139.8 595.3 594.9" xml:space="preserve">
<g>
	<circle fill="#FF0D0D" cx="302.2" cy="1437.5" r="149.8"/>
	<path fill="#FF0D0D" d="M97.9,1437.5L97.9,1437.5c0,7-5.8,12.8-12.5,12.8H17c-7,0-12.5-5.8-12.5-12.5l0,0c0-7,5.8-12.5,12.5-12.5
		h68.1C92.1,1425,97.9,1430.5,97.9,1437.5z"/>
	<path fill="#FF0D0D" d="M599.8,1437.5L599.8,1437.5c0,7-5.8,12.8-12.5,12.8h-68.1c-7,0-12.5-5.8-12.5-12.5l0,0
		c0-7,5.8-12.5,12.5-12.5h68.1C594,1425,599.8,1430.5,599.8,1437.5z"/>
	<path fill="#FF0D0D" d="M302.2,1641.8L302.2,1641.8c7,0,12.8,5.8,12.8,12.5v68.1c0,7-5.8,12.5-12.5,12.5l0,0
		c-7,0-12.5-5.8-12.5-12.5v-68.1C289.4,1647.6,295.2,1641.8,302.2,1641.8z"/>
	<path fill="#FF0D0D" d="M302.2,1139.8L302.2,1139.8c7,0,12.8,5.8,12.8,12.5v68.1c0,7-5.8,12.5-12.5,12.5l0,0
		c-7,0-12.5-5.8-12.5-12.5v-68.1C289.4,1145.7,295.2,1139.8,302.2,1139.8z"/>
	<path fill="#FF0D0D" d="M446.6,1581.8L446.6,1581.8c5.1-5.1,12.8-5.1,17.9,0l48.2,48.2c5.1,5.1,5.1,12.8,0,17.9l0,0
		c-5.1,5.1-12.8,5.1-17.9,0l-48.2-48.2C441.9,1595.1,441.9,1586.9,446.6,1581.8z"/>
	<path fill="#FF0D0D" d="M91.7,1227L91.7,1227c5.1-5.1,12.8-5.1,17.9,0l48.2,48.2c5.1,5.1,5.1,12.8,0,17.9l0,0
		c-5.1,5.1-12.8,5.1-17.9,0l-48.2-48.2C86.7,1239.8,86.7,1232.1,91.7,1227z"/>
	<path fill="#FF0D0D" d="M157.9,1582.2L157.9,1582.2c5.1,5.1,5.1,12.8,0,17.9l-48.2,48.2c-5.1,5.1-12.8,5.1-17.9,0l0,0
		c-5.1-5.1-5.1-12.8,0-17.9l48.2-48.2C144.6,1577.2,152.8,1577.2,157.9,1582.2z"/>
	<path fill="#FF0D0D" d="M512.7,1227.4L512.7,1227.4c5.1,5.1,5.1,12.8,0,17.9l-48.2,48.2c-5.1,5.1-12.8,5.1-17.9,0l0,0
		c-5.1-5.1-5.1-12.8,0-17.9l48.2-48.2C499.9,1222.3,507.6,1222.3,512.7,1227.4z"/>
</g>
</svg>
