<?xml version="1.0" encoding="utf-8"?>
<!-- Generator: Adobe Illustrator 18.1.1, SVG Export Plug-In . SVG Version: 6.00 Build 0)  -->
<svg version="1.0" id="图层_1" xmlns="http://www.w3.org/2000/svg" xmlns:xlink="http://www.w3.org/1999/xlink" x="0px" y="0px"
	 viewBox="0 0 67.4 67.4" enable-background="new 0 0 67.4 67.4" xml:space="preserve">
<g>
	<path fill="#ECEFF0" d="M39.1,33.7L37,3.3C37,1.5,35.5,0,33.7,0v39.1C36.7,39.1,39.1,36.7,39.1,33.7z"/>
	<path fill="#ECEFF0" d="M28.3,33.7l2.1-30.4c0-1.8,1.5-3.3,3.3-3.3v39.1C30.7,39.1,28.3,36.7,28.3,33.7z"/>
</g>
<g>
	<path fill="#ECEFF0" d="M31,29L5.7,46c-1.6,0.9-2.1,2.9-1.2,4.5L38.4,31C36.9,28.4,33.6,27.5,31,29z"/>
	<path fill="#ECEFF0" d="M36.4,38.4L9,51.7c-1.6,0.9-3.6,0.4-4.5-1.2L38.4,31C39.9,33.6,39,36.9,36.4,38.4z"/>
</g>
<g>
	<path fill="#ECEFF0" d="M31,38.4l27.4,13.3c1.6,0.9,3.6,0.4,4.5-1.2L29,31C27.5,33.6,28.4,36.9,31,38.4z"/>
	<path fill="#ECEFF0" d="M36.4,29l25.2,17c1.6,0.9,2.1,2.9,1.2,4.5L29,31C30.5,28.4,33.8,27.5,36.4,29z"/>
</g>
<g display="none">
	<path display="inline" fill="#ECEFF0" d="M28.3,33.7l2.1,30.4c0,1.8,1.5,3.3,3.3,3.3V28.3C30.7,28.3,28.3,30.7,28.3,33.7z"/>
	<path display="inline" fill="#ECEFF0" d="M39.1,33.7L37,64.1c0,1.8-1.5,3.3-3.3,3.3V28.3C36.7,28.3,39.1,30.7,39.1,33.7z"/>
</g>
<circle fill="#CFD4D7" cx="33.7" cy="33.7" r="5.4"/>
</svg>
