<?xml version="1.0" encoding="utf-8"?>
<!-- Generator: Adobe Illustrator 18.1.1, SVG Export Plug-In . SVG Version: 6.00 Build 0)  -->
<svg version="1.0" id="图层_2" xmlns="http://www.w3.org/2000/svg" xmlns:xlink="http://www.w3.org/1999/xlink" x="0px" y="0px"
	 viewBox="0 0 153 153" enable-background="new 0 0 153 153" xml:space="preserve">
    <g>
        <animateTransform attributeName="transform" begin="0s" dur="10s" type="rotate" from="0 76.5 76.5" to="360 76.5 76.5" repeatCount="indefinite"/>
        <circle fill="#FF0D0D" cx="76.5" cy="76.5" r="38.5"/>
        <path fill="#FF0D0D" d="M24,76.5L24,76.5c0,1.8-1.5,3.3-3.2,3.3H3.2c-1.8,0-3.2-1.5-3.2-3.2v0c0-1.8,1.5-3.2,3.2-3.2h17.5
            C22.5,73.3,24,74.7,24,76.5z"/>
        <path fill="#FF0D0D" d="M153,76.5L153,76.5c0,1.8-1.5,3.3-3.2,3.3h-17.5c-1.8,0-3.2-1.5-3.2-3.2v0c0-1.8,1.5-3.2,3.2-3.2h17.5
            C151.5,73.3,153,74.7,153,76.5z"/>
        <path fill="#FF0D0D" d="M76.5,129L76.5,129c1.8,0,3.3,1.5,3.3,3.2v17.5c0,1.8-1.5,3.2-3.2,3.2h0c-1.8,0-3.2-1.5-3.2-3.2v-17.5
            C73.2,130.5,74.7,129,76.5,129z"/>
        <path fill="#FF0D0D" d="M76.5,0L76.5,0c1.8,0,3.3,1.5,3.3,3.2v17.5c0,1.8-1.5,3.2-3.2,3.2h0c-1.8,0-3.2-1.5-3.2-3.2V3.2
            C73.2,1.5,74.7,0,76.5,0z"/>
        <path fill="#FF0D0D" d="M113.6,113.6L113.6,113.6c1.3-1.3,3.3-1.3,4.6,0l12.4,12.4c1.3,1.3,1.3,3.3,0,4.6l0,0
            c-1.3,1.3-3.3,1.3-4.6,0l-12.4-12.4C112.4,117,112.4,114.9,113.6,113.6z"/>
        <path fill="#FF0D0D" d="M22.4,22.4L22.4,22.4c1.3-1.3,3.3-1.3,4.6,0l12.4,12.4c1.3,1.3,1.3,3.3,0,4.6l0,0c-1.3,1.3-3.3,1.3-4.6,0
            L22.4,27C21.1,25.7,21.1,23.7,22.4,22.4z"/>
        <path fill="#FF0D0D" d="M39.4,113.7L39.4,113.7c1.3,1.3,1.3,3.3,0,4.6L27,130.7c-1.3,1.3-3.3,1.3-4.6,0l0,0c-1.3-1.3-1.3-3.3,0-4.6
            l12.4-12.4C36,112.4,38.1,112.4,39.4,113.7z"/>
        <path fill="#FF0D0D" d="M130.6,22.5L130.6,22.5c1.3,1.3,1.3,3.3,0,4.6l-12.4,12.4c-1.3,1.3-3.3,1.3-4.6,0l0,0
            c-1.3-1.3-1.3-3.3,0-4.6L126,22.5C127.3,21.2,129.3,21.2,130.6,22.5z"/>
    </g>
</svg>
