<?xml version="1.0" encoding="utf-8"?>
<!--    100: 晴  -->
<svg version="1.0" id="图层_2" xmlns="http://www.w3.org/2000/svg" xmlns:xlink="http://www.w3.org/1999/xlink" x="0px" y="0px"
	 viewBox="0 0 595.3 595.3" enable-background="new 0 0 595.3 595.3" xml:space="preserve">
<g>
	
		<animateTransform  repeatCount="indefinite" type="rotate" fill="remove" from="0 297.64 297.64" to="360 297.64 297.64" dur="10s" begin="0s" restart="always" attributeName="transform" calcMode="linear" additive="replace" accumulate="none">
		</animateTransform>
	<circle fill="#FF0D0D" cx="297.9" cy="297.6" r="149.9"/>
	<path fill="#FF0D0D" d="M93.4,297.6L93.4,297.6c0,7-5.8,12.8-12.6,12.8H12.6c-7,0-12.6-5.8-12.6-12.6l0,0c0-7,5.8-12.6,12.6-12.6
		h68.2C87.8,285.3,93.4,290.6,93.4,297.6z"/>
	<path fill="#FF0D0D" d="M595.3,297.6L595.3,297.6c0,7-5.8,12.8-12.6,12.8h-68.2c-7,0-12.6-5.8-12.6-12.6l0,0
		c0-7,5.8-12.6,12.6-12.6h68.2C589.7,285.3,595.3,290.6,595.3,297.6z"/>
	<path fill="#FF0D0D" d="M297.9,501.9L297.9,501.9c7,0,12.8,5.8,12.8,12.6v68.2c0,7-5.8,12.6-12.6,12.6l0,0c-7,0-12.6-5.8-12.6-12.6
		v-68.2C285,507.7,290.9,501.9,297.9,501.9z"/>
	<path fill="#FF0D0D" d="M297.9,0L297.9,0c7,0,12.8,5.8,12.8,12.6v68.2c0,7-5.8,12.6-12.6,12.6l0,0c-7,0-12.6-5.8-12.6-12.6V12.6
		C285,5.8,290.9,0,297.9,0z"/>
	<path fill="#FF0D0D" d="M442.1,441.9L442.1,441.9c5.1-5.1,12.8-5.1,18,0l48.1,48.1c5.1,5.1,5.1,12.8,0,18l0,0
		c-5.1,5.1-12.8,5.1-18,0l-48.1-48.1C437.5,455.2,437.5,447,442.1,441.9z"/>
	<path fill="#FF0D0D" d="M87.3,87.1L87.3,87.1c5.1-5.1,12.8-5.1,18,0l48.1,48.1c5.1,5.1,5.1,12.8,0,18l0,0c-5.1,5.1-12.8,5.1-18,0
		L87.3,105C82.4,99.9,82.4,92.2,87.3,87.1z"/>
	<path fill="#FF0D0D" d="M153.4,442.4L153.4,442.4c5.1,5.1,5.1,12.8,0,18l-48.1,48.1c-5.1,5.1-12.8,5.1-18,0l0,0
		c-5.1-5.1-5.1-12.8,0-18l48.1-48.1C140.3,437.5,148.5,437.5,153.4,442.4z"/>
	<path fill="#FF0D0D" d="M508.2,87.5L508.2,87.5c5.1,5.1,5.1,12.8,0,18l-48.1,48.1c-5.1,5.1-12.8,5.1-18,0l0,0
		c-5.1-5.1-5.1-12.8,0-18l48.1-48.1C495.4,82.4,503.1,82.4,508.2,87.5z"/>
</g>
</svg>
