<?xml version="1.0" encoding="utf-8"?>
<!-- Generator: Adobe Illustrator 18.1.1, SVG Export Plug-In . SVG Version: 6.00 Build 0)  -->
<svg version="1.0" id="图层_2" xmlns="http://www.w3.org/2000/svg" xmlns:xlink="http://www.w3.org/1999/xlink" x="0px" y="0px"
	 viewBox="0 0 153 153" enable-background="new 0 0 153 153" xml:space="preserve">
<g>
    <animateTransform attributeName="transform" begin="0s" dur="10s" type="rotate" from="0 49.6 40.7" to="360 49.6 40.7" repeatCount="indefinite"/>
	<circle fill="#FF0D0D" cx="49.6" cy="40.8" r="16.4"/>
	<path fill="#FF0D0D" d="M27.3,40.8L27.3,40.8c0,0.8-0.6,1.4-1.4,1.4h-7.5c-0.8,0-1.4-0.6-1.4-1.4l0,0c0-0.8,0.6-1.4,1.4-1.4h7.4
		C26.7,39.4,27.3,40,27.3,40.8z"/>
	<path fill="#FF0D0D" d="M82.1,40.8L82.1,40.8c0,0.8-0.6,1.4-1.4,1.4h-7.4c-0.8,0-1.4-0.6-1.4-1.4l0,0c0-0.8,0.6-1.4,1.4-1.4h7.4
		C81.5,39.4,82.1,40,82.1,40.8z"/>
	<path fill="#FF0D0D" d="M49.6,63.1L49.6,63.1c0.8,0,1.4,0.6,1.4,1.4v7.4c0,0.8-0.6,1.4-1.4,1.4l0,0c-0.8,0-1.4-0.6-1.4-1.4v-7.4
		C48.2,63.7,48.9,63.1,49.6,63.1z"/>
	<path fill="#FF0D0D" d="M49.6,8.3L49.6,8.3c0.8,0,1.4,0.6,1.4,1.4v7.4c0,0.8-0.6,1.4-1.4,1.4l0,0c-0.8,0-1.4-0.6-1.4-1.4V9.6
		C48.2,8.9,48.9,8.3,49.6,8.3z"/>
	<path fill="#FF0D0D" d="M65.4,56.5L65.4,56.5c0.6-0.6,1.4-0.6,2,0l5.3,5.3c0.6,0.6,0.6,1.4,0,2l0,0c-0.6,0.6-1.4,0.6-2,0l-5.3-5.3
		C64.9,58,64.9,57.1,65.4,56.5z"/>
	<path fill="#FF0D0D" d="M26.7,17.8L26.7,17.8c0.6-0.6,1.4-0.6,2,0l5.3,5.3c0.6,0.6,0.6,1.4,0,2l0,0c-0.6,0.6-1.4,0.6-2,0l-5.3-5.3
		C26.1,19.2,26.1,18.3,26.7,17.8z"/>
	<path fill="#FF0D0D" d="M33.9,56.6L33.9,56.6c0.6,0.6,0.6,1.4,0,2l-5.3,5.3c-0.6,0.6-1.4,0.6-2,0l0,0c-0.6-0.6-0.6-1.4,0-2l5.3-5.3
		C32.4,56,33.3,56,33.9,56.6z"/>
	<path fill="#FF0D0D" d="M72.6,17.8L72.6,17.8c0.6,0.6,0.6,1.4,0,2l-5.3,5.3c-0.6,0.6-1.4,0.6-2,0l0,0c-0.6-0.6-0.6-1.4,0-2l5.3-5.3
		C71.2,17.3,72.1,17.3,72.6,17.8z"/>
</g>
<path fill="#36E7FF" d="M38.5,66.9c-2.9-22.7,20-21.6,20-21.6c-1.5-5,3.4-25.9,22.8-26.8c19.4-0.9,24.9,17.1,24.9,17.1
	s5.4-4.6,18.3-0.2c5.5,1.9,9.1,5.8,11.3,9.6c3.9,6.8,4.5,15.1,1.6,22.3c-5.8,14.3-21.8,14.3-21.8,14.3H57.6
	C57.6,81.7,40.5,82.5,38.5,66.9z"/>
</svg>
