<?xml version="1.0" encoding="utf-8"?>
<!--    305: 小雨 -->
<svg version="1.0" id="图层_2" xmlns="http://www.w3.org/2000/svg" xmlns:xlink="http://www.w3.org/1999/xlink" x="0px" y="0px"
	 viewBox="0 0 255 255" enable-background="new 0 0 255 255" xml:space="preserve">

<!--
    <use x ="-140" y ="-120" xlink:href="#p1">
    <animateMotion path="M80 120 L80 260" begin="0.5s" dur="3s" rotate="auto" repeatCount="indefinite"/>
    </use>
-->
    <use x ="-140" y ="-120" xlink:href="#p1">
    <animateMotion path="M105 120 L105 260" begin="2s" dur="3s" rotate="auto" repeatCount="indefinite"/>
    </use>
<!--
    <use x ="-140" y ="-120" xlink:href="#p1">
    <animateMotion path="M130 120 L130 260" begin="0s" dur="3s" rotate="auto" repeatCount="indefinite"/>
    </use>
-->
    <use x ="-140" y ="-120" xlink:href="#p1">
    <animateMotion path="M155 120 L155 260" begin="0s" dur="3s" rotate="auto" repeatCount="indefinite"/>
    </use>
<!--
    <use x ="-140" y ="-120" xlink:href="#p1">
    <animateMotion path="M180 120 L180 260" begin="2.5s" dur="3s" rotate="auto" repeatCount="indefinite"/>
    </use>
-->
<defs>
	<path id="p1" fill="#8DEAFF" d="M142.2,127c0,1.3-0.8,4.9-4.6,5.3c-3.8,0.3-11.9-5.3-11.9-5.3s8-5.6,11.9-5.3
		C141.4,122,142.2,125.6,142.2,127z	">
	</path>
</defs>
<path fill="#36E7FF" d="M40.3,109.9c-5.4-42.6,37.5-40.5,37.5-40.5C75,60,84.1,20.8,120.5,19.1s46.7,32,46.7,32s10.1-8.6,34.3-0.4
	c10.3,3.6,17.1,10.9,21.2,18c7.3,12.8,8.4,28.3,3,41.8c-10.9,26.8-40.9,26.8-40.9,26.8H76.1C76.1,137.6,44.1,139.1,40.3,109.9z"/>
<!--<path fill="none" stroke="#000000" stroke-width="3" stroke-miterlimit="10" d="M80 120 L80 260"/>-->
<!--<path fill="none" stroke="#000000" stroke-width="3" stroke-miterlimit="10" d="M105 120 L105 260"/>-->
<!--<path fill="none" stroke="#000000" stroke-width="3" stroke-miterlimit="10" d="M130 120 L130 260"/>-->
<!--<path fill="none" stroke="#000000" stroke-width="3" stroke-miterlimit="10" d="M155 120 L155 260"/>-->
<!--<path fill="none" stroke="#000000" stroke-width="3" stroke-miterlimit="10" d="M180 120 L180 260"/>-->
</svg>
